HIERARCHY
ROOT Hips
{
    OFFSET 0.000000 0.000000 0.000000
    CHANNELS 6 Xposition Yposition Zposition Zrotation Xrotation Yrotation
    JOINT Spine
    {
        OFFSET -0.000000 7.761268 0.000000
        CHANNELS 3 Zrotation Xrotation Yrotation
        JOINT Spine1
        {
            OFFSET -0.000000 24.785763 0.000000
            CHANNELS 3 Zrotation Xrotation Yrotation
            JOINT Neck
            {
                OFFSET -0.000000 24.683973 2.243998
                CHANNELS 3 Zrotation Xrotation Yrotation
                JOINT Head
                {
                    OFFSET -0.000000 13.250945 -1.892992
                    CHANNELS 3 Zrotation Xrotation Yrotation
                    End Site
                    {
                        OFFSET -0.000000 23.662401 0.000000
                    }
                }
            }
            JOINT LeftShoulder
            {
                OFFSET 3.794134 23.444212 -0.177979
                CHANNELS 3 Zrotation Xrotation Yrotation
                JOINT LeftArm
                {
                    OFFSET 9.211075 0.000000 0.000000
                    CHANNELS 3 Zrotation Xrotation Yrotation
                    JOINT LeftForeArm
                    {
                        OFFSET 34.352840 0.000000 0.000000
                        CHANNELS 3 Zrotation Xrotation Yrotation
                        JOINT LeftHand
                        {
                            OFFSET 25.460636 0.000000 0.000000
                            CHANNELS 3 Zrotation Xrotation Yrotation
                            End Site
                            {
                                OFFSET 14.197442 0.000000 0.000000
                            }
                        }
                    }
                }
            }
            JOINT RightShoulder
            {
                OFFSET -3.767389 23.444212 -0.177979
                CHANNELS 3 Zrotation Xrotation Yrotation
                JOINT RightArm
                {
                    OFFSET -9.211075 0.000000 0.000000
                    CHANNELS 3 Zrotation Xrotation Yrotation
                    JOINT RightForeArm
                    {
                        OFFSET -34.352840 0.000000 0.000000
                        CHANNELS 3 Zrotation Xrotation Yrotation
                        JOINT RightHand
                        {
                            OFFSET -25.460636 0.000000 0.000000
                            CHANNELS 3 Zrotation Xrotation Yrotation
                            End Site
                            {
                                OFFSET -14.197442 0.000000 0.000000
                            }
                        }
                    }
                }
            }
        }
    }
    JOINT LeftUpLeg
    {
        OFFSET 9.464960 0.000000 0.000000
        CHANNELS 3 Zrotation Xrotation Yrotation
        JOINT LeftLeg
        {
            OFFSET -0.000000 -36.073700 0.000000
            CHANNELS 3 Zrotation Xrotation Yrotation
            JOINT LeftFoot
            {
                OFFSET -0.000000 -40.808823 0.000000
                CHANNELS 3 Zrotation Xrotation Yrotation
                JOINT LeftToeBase
                {
                    OFFSET -0.000000 -6.152224 14.197442
                    CHANNELS 3 Zrotation Xrotation Yrotation
                    End Site
                    {
                        OFFSET -0.000000 0.000000 3.785984
                    }
                }
            }
        }
    }
    JOINT RightUpLeg
    {
        OFFSET -9.464960 0.000000 0.000000
        CHANNELS 3 Zrotation Xrotation Yrotation
        JOINT RightLeg
        {
            OFFSET -0.000000 -36.073700 0.000000
            CHANNELS 3 Zrotation Xrotation Yrotation
            JOINT RightFoot
            {
                OFFSET -0.000000 -40.808823 0.000000
                CHANNELS 3 Zrotation Xrotation Yrotation
                JOINT RightToeBase
                {
                    OFFSET -0.000000 -6.152224 14.197442
                    CHANNELS 3 Zrotation Xrotation Yrotation
                    End Site
                    {
                        OFFSET -0.000000 0.000000 3.785984
                    }
                }
            }
        }
    }
}
MOTION
Frames:    9
Frame Time:    0.004000
-4.116078    80.306671    -78.717514    -0.663647    -3.679379    7.783780    -2.097800    -6.201739    -4.296405    -1.104094    11.352359    -4.072979    4.485196    21.288010    0.349327    -1.495973    8.609978    0.477744    -4.155540    16.839211    -1.078218    -56.666908    44.593975    22.535341    -24.406410    21.214237    -108.524437    62.289036    3.228677    27.466190    7.535044    21.173044    -11.437532    64.828896    52.368603    -23.094027    -1.982991    -17.023802    112.067696    -29.271969    -5.964105    -31.178465    -3.874945    19.208490    3.274602    -0.364687    -3.142838    -9.983829    0.933308    -9.458799    9.335567    0.000000    0.000000    0.000000    -2.906727    -21.761953    -0.523739    4.438961    5.667693    0.216390    2.990274    6.082253    -25.287209    0.000000    0.000000    0.000000    
-4.110487    80.269669    -78.495384    -0.595661    -3.535067    7.891668    -2.167862    -6.323899    -4.304093    -1.017755    11.328898    -4.083329    4.441956    21.319565    0.263760    -1.469737    8.628920    0.389994    -4.189302    16.839731    -1.117229    -56.623337    44.539246    22.505369    -24.512730    21.309856    -108.488197    62.502186    3.322661    27.562691    7.500933    21.207418    -11.474773    64.810951    52.363323    -23.035202    -1.994801    -17.018774    112.094246    -29.167830    -5.951360    -31.248556    -3.898834    19.203554    3.214176    -0.379957    -3.098917    -9.924205    0.856257    -9.530735    9.208627    0.000000    0.000000    0.000000    -2.858857    -21.599356    -0.489628    4.104692    4.774164    0.305582    3.348283    6.585878    -25.477587    0.000000    0.000000    0.000000    
-4.095493    80.228302    -78.250969    -0.533672    -3.489315    7.944667    -2.180887    -6.413121    -4.274638    -1.035663    11.386244    -4.049142    4.514376    21.318235    0.208055    -1.443832    8.659348    0.337572    -4.153481    16.926262    -1.147463    -56.508553    44.453293    22.351109    -24.525949    21.365368    -108.469398    62.521465    3.352473    27.519621    7.577038    21.299314    -11.549101    64.605324    52.391739    -22.821579    -1.919997    -16.990036    112.091423    -29.329620    -5.982802    -31.252354    -3.943201    19.355106    3.234118    -0.380938    -3.127396    -9.904930    0.734267    -9.591059    9.132655    0.000000    0.000000    0.000000    -2.788232    -21.332893    -0.417880    3.785955    3.911446    0.290585    3.767855    6.966781    -25.470100    0.000000    0.000000    0.000000    
-4.085186    80.183853    -77.986938    -0.474927    -3.451497    8.036178    -2.214081    -6.481115    -4.272529    -0.980208    11.430145    -4.049001    4.512407    21.357098    0.144476    -1.433490    8.604025    0.272981    -4.147678    16.844122    -1.123299    -56.626556    44.619152    22.413811    -24.435539    21.199581    -108.517616    62.440704    3.265627    27.531149    7.571811    21.297066    -11.548229    64.616234    52.417965    -22.840836    -1.933936    -17.039288    112.088943    -29.307446    -6.022183    -31.245111    -3.955553    19.502665    3.214635    -0.391856    -3.108170    -9.984313    0.707240    -9.688586    9.134210    0.000000    0.000000    0.000000    -2.689970    -21.013262    -0.377993    3.367663    2.960990    0.291597    4.276947    7.347616    -25.410891    0.000000    0.000000    0.000000    
-4.075924    80.154762    -77.761284    -0.363485    -3.200455    8.102509    -2.342664    -6.751552    -4.263070    -0.920475    11.452343    -4.032528    4.553989    21.393204    0.081818    -1.469621    8.612622    0.209218    -4.157663    16.851934    -1.188384    -56.625256    44.566273    22.403973    -24.504337    21.222742    -108.475510    62.253174    3.171593    27.570427    7.579766    21.282015    -11.545211    64.576004    52.330479    -22.824263    -1.958764    -16.965448    112.092262    -29.197546    -5.947822    -31.222002    -4.070522    19.370443    3.354759    -0.385244    -3.003947    -10.190062    0.535590    -9.713904    9.150960    0.000000    0.000000    0.000000    -2.704049    -20.955519    -0.281365    3.138202    2.175385    0.270859    4.177504    7.693982    -25.479628    0.000000    0.000000    0.000000    
-4.068556    80.118614    -77.510300    -0.288462    -3.096232    8.190602    -2.385731    -6.914144    -4.272295    -0.900172    11.551123    -4.037064    4.536434    21.390793    0.008186    -1.441521    8.600191    0.133109    -4.177003    16.785061    -1.151272    -56.614872    44.633083    22.408287    -24.465796    21.181828    -108.502213    62.273636    3.186427    27.583971    7.553642    21.307476    -11.532207    64.541183    52.339897    -22.728981    -1.798949    -16.907089    112.145355    -29.125807    -6.150241    -31.192934    -4.112077    19.447258    3.399697    -0.393191    -2.994521    -10.331150    0.393769    -9.762718    9.171330    0.000000    0.000000    0.000000    -2.662050    -20.716440    -0.219343    2.797559    1.314472    0.246856    4.731179    7.983639    -25.512796    0.000000    0.000000    0.000000    
-4.063050    80.056618    -77.257965    -0.303590    -3.221144    8.302609    -2.277051    -6.756500    -4.276793    -0.924737    11.494254    -4.049243    4.609192    21.420349    -0.030054    -1.480993    8.592480    0.095478    -4.167549    16.881586    -1.178844    -56.555229    44.533092    22.319269    -24.541494    21.249298    -108.496178    62.624870    3.292459    27.629566    7.575628    21.339310    -11.520183    64.625587    52.464836    -22.801022    -1.823220    -17.077278    112.154167    -28.997396    -6.305735    -31.276646    -4.008770    19.746458    3.395339    -0.428751    -2.983039    -10.436723    0.513503    -9.980475    9.169084    0.000000    0.000000    0.000000    -2.494214    -20.280842    -0.205792    2.490350    0.548267    0.089318    4.739230    8.104515    -25.292547    0.000000    0.000000    0.000000    
-4.047167    80.010590    -76.997078    -0.246353    -3.154354    8.385386    -2.291089    -6.841968    -4.258700    -0.897889    11.504066    -4.031249    4.643810    21.413828    -0.084776    -1.476090    8.670043    0.041644    -4.154659    16.910549    -1.210317    -56.575500    44.589870    22.296272    -24.562071    21.201534    -108.513596    62.867767    3.295710    27.653345    7.566422    21.278568    -11.516035    64.565880    52.320381    -22.796143    -1.692193    -16.823435    112.227936    -29.058407    -6.183650    -31.385279    -4.041852    19.871813    3.333010    -0.421383    -2.985449    -10.419323    0.455695    -10.051055    9.143643    0.000000    0.000000    0.000000    -2.456393    -19.995157    -0.132753    2.223851    -0.269203    0.105339    4.961873    8.202513    -25.301720    0.000000    0.000000    0.000000    
-4.032739    79.965248    -76.742882    -0.118488    -3.112415    8.512567    -2.385954    -6.882298    -4.275812    -0.852553    11.528873    -4.046230    4.624034    21.441179    -0.143384    -1.462742    8.607071    -0.018789    -4.171332    16.818596    -1.185624    -56.616169    44.675636    22.337723    -24.521326    21.123934    -108.491814    62.350941    3.130155    27.676336    7.576795    21.304041    -11.521952    64.575020    52.382221    -22.786543    -1.635420    -16.867491    112.262428    -28.989096    -6.342299    -31.350447    -4.132084    19.996105    3.322863    -0.413069    -2.939631    -10.384027    0.365615    -10.111223    9.031153    0.000000    0.000000    0.000000    -2.514475    -19.689379    -0.114254    2.034355    -0.999071    0.012207    4.290780    8.336865    -25.026491    0.000000    0.000000    0.000000    
